<svg width="20" height="20" viewBox="0 0 20 20" fill="none" xmlns="http://www.w3.org/2000/svg">
<g id="Frame">
<path id="Vector" fill-rule="evenodd" clip-rule="evenodd" d="M9.99992 1.875C5.51242 1.875 1.87492 5.5125 1.87492 10C1.87492 14.4875 5.51242 18.125 9.99992 18.125C14.4874 18.125 18.1249 14.4875 18.1249 10C18.1249 5.5125 14.4874 1.875 9.99992 1.875ZM13.5666 10.4417C13.6836 10.3245 13.7494 10.1656 13.7494 10C13.7494 9.83437 13.6836 9.67552 13.5666 9.55833L11.0666 7.05833C11.0094 6.99693 10.9404 6.94768 10.8637 6.91352C10.787 6.87936 10.7043 6.86099 10.6204 6.85951C10.5364 6.85803 10.4531 6.87346 10.3753 6.9049C10.2974 6.93633 10.2267 6.98312 10.1674 7.04247C10.108 7.10182 10.0613 7.17251 10.0298 7.25034C9.99838 7.32816 9.98295 7.41152 9.98443 7.49543C9.98591 7.57935 10.0043 7.66212 10.0384 7.73878C10.0726 7.81545 10.1218 7.88445 10.1833 7.94167L11.6166 9.375H6.87492C6.70916 9.375 6.55019 9.44085 6.43298 9.55806C6.31577 9.67527 6.24992 9.83424 6.24992 10C6.24992 10.1658 6.31577 10.3247 6.43298 10.4419C6.55019 10.5592 6.70916 10.625 6.87492 10.625H11.6166L10.1833 12.0583C10.1218 12.1156 10.0726 12.1846 10.0384 12.2612C10.0043 12.3379 9.98591 12.4206 9.98443 12.5046C9.98295 12.5885 9.99838 12.6718 10.0298 12.7497C10.0613 12.8275 10.108 12.8982 10.1674 12.9575C10.2267 13.0169 10.2974 13.0637 10.3753 13.0951C10.4531 13.1265 10.5364 13.142 10.6204 13.1405C10.7043 13.139 10.787 13.1206 10.8637 13.0865C10.9404 13.0523 11.0094 13.0031 11.0666 12.9417L13.5666 10.4417Z" fill="white"/>
</g>
</svg>
