<svg width="122" height="122" viewBox="0 0 122 122" fill="none" xmlns="http://www.w3.org/2000/svg">
<g id="Frame">
<path id="Vector (Stroke)" fill-rule="evenodd" clip-rule="evenodd" d="M57.1875 11.4375C67.9577 11.435 78.7168 12.1282 89.3976 13.5126L89.3989 13.5128C99.6071 14.8396 106.75 23.7213 106.75 33.7381L106.751 65.387C106.751 75.4038 99.6083 84.2854 89.4001 85.6123C89.1701 85.6422 88.9424 85.6719 88.7164 85.7013C86.0756 86.0458 83.6571 86.3613 80.3604 86.6187C75.5452 86.9945 69.4691 86.9282 64.6895 86.778C62.28 86.7022 60.1629 86.6038 58.6473 86.5243C58.4313 86.5129 58.2275 86.502 58.0367 86.4915L37.124 109.325C36.0619 110.485 34.3968 110.873 32.9311 110.303C31.4655 109.734 30.5 108.323 30.5 106.75V86.2679C28.6522 86.0697 26.8108 85.8507 24.9761 85.6122C14.7679 84.2854 7.625 75.4037 7.625 65.3869V33.7381C7.625 23.7213 14.7679 14.8396 24.9761 13.5128C35.518 12.1447 46.2718 11.4375 57.1875 11.4375Z" fill="url(#paint0_radial_1_22)"/>
<g id="Vector (Stroke)_2" filter="url(#filter0_biiii_1_22)">
<path fill-rule="evenodd" clip-rule="evenodd" d="M77.0822 33.273C69.0084 33.2711 60.9429 33.7907 52.9362 34.8286L52.9352 34.8287C45.2827 35.8233 39.9281 42.4815 39.9281 49.9906L39.9272 73.7161C39.9272 81.2252 45.2818 87.8834 52.9343 88.878C53.1067 88.9004 53.2774 88.9227 53.4468 88.9448C55.4264 89.203 57.2394 89.4395 59.7108 89.6324C63.3205 89.9142 67.8754 89.8645 71.4584 89.7519C73.2646 89.6951 74.8517 89.6213 75.9878 89.5617C76.1497 89.5532 76.3025 89.545 76.4456 89.5371L92.1226 106.654C92.9188 107.524 94.167 107.815 95.2657 107.388C96.3645 106.961 97.0882 105.903 97.0882 104.724V89.3695C98.4734 89.2209 99.8538 89.0567 101.229 88.878C108.882 87.8833 114.236 81.2252 114.236 73.7161V49.9906C114.236 42.4815 108.882 35.8233 101.229 34.8287C93.3266 33.8031 85.2651 33.273 77.0822 33.273Z" fill="url(#paint1_linear_1_22)"/>
<path fill-rule="evenodd" clip-rule="evenodd" d="M77.0822 33.273C69.0084 33.2711 60.9429 33.7907 52.9362 34.8286L52.9352 34.8287C45.2827 35.8233 39.9281 42.4815 39.9281 49.9906L39.9272 73.7161C39.9272 81.2252 45.2818 87.8834 52.9343 88.878C53.1067 88.9004 53.2774 88.9227 53.4468 88.9448C55.4264 89.203 57.2394 89.4395 59.7108 89.6324C63.3205 89.9142 67.8754 89.8645 71.4584 89.7519C73.2646 89.6951 74.8517 89.6213 75.9878 89.5617C76.1497 89.5532 76.3025 89.545 76.4456 89.5371L92.1226 106.654C92.9188 107.524 94.167 107.815 95.2657 107.388C96.3645 106.961 97.0882 105.903 97.0882 104.724V89.3695C98.4734 89.2209 99.8538 89.0567 101.229 88.878C108.882 87.8833 114.236 81.2252 114.236 73.7161V49.9906C114.236 42.4815 108.882 35.8233 101.229 34.8287C93.3266 33.8031 85.2651 33.273 77.0822 33.273Z" fill="black" fill-opacity="0.08"/>
<path d="M52.8708 34.3245L52.8705 34.3245L52.8697 34.3246L52.8708 34.3245ZM52.8708 34.3245C60.8993 33.2838 68.9866 32.7628 77.0823 32.7646C85.287 32.7647 93.3704 33.2962 101.295 34.3246L101.295 34.3246M52.8708 34.3245L101.295 34.3246M101.295 34.3246C109.219 35.3546 114.745 42.2454 114.745 49.9906V73.7161C114.745 81.4612 109.219 88.352 101.295 89.382C100.066 89.5418 98.8332 89.6898 97.5966 89.8256V104.724C97.5966 106.112 96.7441 107.358 95.4499 107.862C94.1558 108.365 92.6855 108.022 91.7477 106.998L76.2331 90.0577C76.1622 90.0615 76.0893 90.0654 76.0145 90.0693C74.8756 90.1291 73.2849 90.203 71.4743 90.26C67.8879 90.3727 63.31 90.4233 59.6713 90.1392C57.1867 89.9453 55.3629 89.7074 53.3837 89.4492L53.3811 89.4488L52.8688 89.3821C44.9442 88.3521 39.4188 81.4613 39.4188 73.7161L39.4197 49.9906C39.4197 42.2455 44.945 35.3547 52.8696 34.3246L101.295 34.3246Z" stroke="white" stroke-opacity="0.22" stroke-width="1.01667"/>
</g>
<path id="Vector (Stroke)_3" fill-rule="evenodd" clip-rule="evenodd" d="M57.1875 18.177C66.4931 18.1749 75.7892 18.7738 85.0177 19.97L85.0188 19.9701C93.8389 21.1165 100.01 28.7904 100.01 37.4452L100.012 62.7571C100.012 71.4118 93.84 79.0858 85.0198 80.2322C84.8211 80.258 84.6244 80.2836 84.4291 80.3091C82.1474 80.6068 80.0578 80.8794 77.2093 81.1017C73.0489 81.4265 67.799 81.3692 63.6694 81.2394C61.5875 81.1739 57.725 81.0889 56.4155 81.0202C56.2289 81.0104 56.0527 81.0009 55.8879 80.9919L39.8522 98.6871C38.9346 99.6891 37.4959 100.025 36.2295 99.5325C34.9632 99.0402 34.129 97.8209 34.129 96.4623V80.7986C32.5324 80.6274 30.9415 80.4382 29.3562 80.2321C20.5361 79.0857 14.3645 71.4118 14.3645 62.7571V37.4452C14.3645 28.7904 20.5361 21.1165 29.3562 19.9701C38.4646 18.7881 47.7561 18.177 57.1875 18.177Z" fill="url(#paint2_linear_1_22)"/>
</g>
<defs>
<filter id="filter0_biiii_1_22" x="29.8825" y="23.2282" width="94.3984" height="94.3985" filterUnits="userSpaceOnUse" color-interpolation-filters="sRGB">
<feFlood flood-opacity="0" result="BackgroundImageFix"/>
<feGaussianBlur in="BackgroundImageFix" stdDeviation="4.514"/>
<feComposite in2="SourceAlpha" operator="in" result="effect1_backgroundBlur_1_22"/>
<feBlend mode="normal" in="SourceGraphic" in2="effect1_backgroundBlur_1_22" result="shape"/>
<feColorMatrix in="SourceAlpha" type="matrix" values="0 0 0 0 0 0 0 0 0 0 0 0 0 0 0 0 0 0 127 0" result="hardAlpha"/>
<feOffset dx="4.2999" dy="4.2999"/>
<feGaussianBlur stdDeviation="4.94489"/>
<feComposite in2="hardAlpha" operator="arithmetic" k2="-1" k3="1"/>
<feColorMatrix type="matrix" values="0 0 0 0 1 0 0 0 0 0.6 0 0 0 0 0 0 0 0 0.18 0"/>
<feBlend mode="normal" in2="shape" result="effect2_innerShadow_1_22"/>
<feColorMatrix in="SourceAlpha" type="matrix" values="0 0 0 0 0 0 0 0 0 0 0 0 0 0 0 0 0 0 127 0" result="hardAlpha"/>
<feOffset dy="0.85998"/>
<feGaussianBlur stdDeviation="1.28997"/>
<feComposite in2="hardAlpha" operator="arithmetic" k2="-1" k3="1"/>
<feColorMatrix type="matrix" values="0 0 0 0 1 0 0 0 0 1 0 0 0 0 1 0 0 0 0.05 0"/>
<feBlend mode="normal" in2="effect2_innerShadow_1_22" result="effect3_innerShadow_1_22"/>
<feColorMatrix in="SourceAlpha" type="matrix" values="0 0 0 0 0 0 0 0 0 0 0 0 0 0 0 0 0 0 127 0" result="hardAlpha"/>
<feOffset dy="0.42999"/>
<feComposite in2="hardAlpha" operator="arithmetic" k2="-1" k3="1"/>
<feColorMatrix type="matrix" values="0 0 0 0 1 0 0 0 0 1 0 0 0 0 1 0 0 0 0.05 0"/>
<feBlend mode="normal" in2="effect3_innerShadow_1_22" result="effect4_innerShadow_1_22"/>
<feColorMatrix in="SourceAlpha" type="matrix" values="0 0 0 0 0 0 0 0 0 0 0 0 0 0 0 0 0 0 127 0" result="hardAlpha"/>
<feOffset dy="-4.2999"/>
<feGaussianBlur stdDeviation="2.14995"/>
<feComposite in2="hardAlpha" operator="arithmetic" k2="-1" k3="1"/>
<feColorMatrix type="matrix" values="0 0 0 0 1 0 0 0 0 0.6 0 0 0 0 0 0 0 0 0.4 0"/>
<feBlend mode="overlay" in2="effect4_innerShadow_1_22" result="effect5_innerShadow_1_22"/>
</filter>
<radialGradient id="paint0_radial_1_22" cx="0" cy="0" r="1" gradientUnits="userSpaceOnUse" gradientTransform="translate(76.8658 36.0634) rotate(122.789) scale(94.7998 94.8008)">
<stop stop-color="#FFBD59"/>
<stop offset="1" stop-color="#E98C00"/>
</radialGradient>
<linearGradient id="paint1_linear_1_22" x1="77.0817" y1="158.325" x2="115.157" y2="49.4735" gradientUnits="userSpaceOnUse">
<stop stop-color="#FF9900" stop-opacity="0.01"/>
<stop offset="1" stop-color="#FF9900" stop-opacity="0.12"/>
</linearGradient>
<linearGradient id="paint2_linear_1_22" x1="57.188" y1="-16.9991" x2="57.188" y2="103.823" gradientUnits="userSpaceOnUse">
<stop stop-color="white"/>
<stop offset="1" stop-color="white" stop-opacity="0"/>
</linearGradient>
</defs>
</svg>
