<svg width="36" height="36" viewBox="0 0 36 36" fill="none" xmlns="http://www.w3.org/2000/svg">
<g id="Group 12">
<path id="Subtract" fill-rule="evenodd" clip-rule="evenodd" d="M13.8922 14.4823C14.0164 14.2797 13.9152 14.0118 13.6836 13.9583C12.8738 13.7715 12.0302 13.6727 11.1636 13.6727C4.99813 13.6727 0 18.6708 0 24.8364C0 31.0019 4.99813 36 11.1636 36C12.0302 36 12.8738 35.9012 13.6836 35.7144C13.9152 35.661 14.0164 35.393 13.8922 35.1904C12.1926 32.4168 11.1639 28.7967 11.1639 24.8364C11.1639 20.876 12.1926 17.2559 13.8922 14.4823Z" fill="#E19937"/>
<path id="Subtract_2" fill-rule="evenodd" clip-rule="evenodd" d="M22.1077 21.5176C21.9835 21.7203 22.0848 21.9882 22.3164 22.0417C23.1262 22.2285 23.9698 22.3273 24.8364 22.3273C31.0019 22.3273 36 17.3291 36 11.1636C36 4.99813 31.0019 4.3695e-07 24.8364 9.75956e-07C23.9698 1.05171e-06 23.1263 0.0987407 22.3164 0.285583C22.0848 0.339019 21.9836 0.606948 22.1078 0.809612C23.8075 3.58314 24.8361 7.20327 24.8361 11.1636C24.8361 15.1239 23.8074 18.7441 22.1077 21.5176Z" fill="#E19937"/>
<path id="Subtract_3" fill-rule="evenodd" clip-rule="evenodd" d="M14.4818 22.1039C14.2791 21.9797 14.0112 22.0809 13.9578 22.3125C13.771 23.1223 13.6722 23.9657 13.6722 24.8322C13.6722 30.9977 18.6704 35.9958 24.8359 35.9958C31.0014 35.9958 35.9995 30.9977 35.9995 24.8322C35.9995 23.9657 35.9008 23.1222 35.714 22.3124C35.6605 22.0808 35.3926 21.9796 35.1899 22.1038C32.4164 23.8035 28.7962 24.8322 24.8358 24.8322C20.8755 24.8322 17.2553 23.8035 14.4818 22.1039Z" fill="#E19937"/>
<path id="Subtract_4" fill-rule="evenodd" clip-rule="evenodd" d="M21.5183 13.8958C21.721 14.02 21.9889 13.9187 22.0423 13.6871C22.2291 12.8775 22.3278 12.0342 22.3278 11.1678C22.3278 5.00227 17.3296 0.0041396 11.1641 0.00414041C4.99862 0.00414122 0.000496566 5.00227 0.000497375 11.1678C0.000497488 12.0344 0.0992487 12.878 0.28611 13.6878C0.339552 13.9194 0.60749 14.0207 0.810152 13.8965C3.58377 12.1966 7.20415 11.1677 11.1648 11.1677C15.1249 11.1677 18.7448 12.1963 21.5183 13.8958Z" fill="#E19937"/>
</g>
</svg>
