<svg width="22" height="22" viewBox="0 0 22 22" fill="none" xmlns="http://www.w3.org/2000/svg">
<path fill-rule="evenodd" clip-rule="evenodd" d="M8.3818 9.03049C8.50727 8.8154 8.40104 8.53451 8.15678 8.48607C7.72519 8.40047 7.27894 8.35559 6.8222 8.35559C3.0544 8.35559 0 11.41 0 15.1778C0 18.9456 3.0544 22 6.8222 22C7.27894 22 7.72519 21.9551 8.15679 21.8695C8.40104 21.8211 8.50727 21.5402 8.3818 21.3251C7.40752 19.6549 6.82218 17.5132 6.82218 15.1778C6.82218 12.8424 7.40752 10.7006 8.3818 9.03049Z" fill="white"/>
<path fill-rule="evenodd" clip-rule="evenodd" d="M13.6182 12.9695C13.4927 13.1846 13.599 13.4655 13.8432 13.5139C14.2748 13.5995 14.7211 13.6444 15.1778 13.6444C18.9456 13.6444 22 10.59 22 6.82221C22 3.05441 18.9456 3.12805e-06 15.1778 3.45744e-06C14.7211 3.49737e-06 14.2748 0.0448863 13.8432 0.130482C13.599 0.178924 13.4927 0.45981 13.6182 0.674902C14.5925 2.34506 15.1778 4.48685 15.1778 6.82222C15.1778 9.15757 14.5925 11.2994 13.6182 12.9695Z" fill="white"/>
<path fill-rule="evenodd" clip-rule="evenodd" d="M9.03043 13.6159C8.81533 13.4904 8.53445 13.5966 8.48602 13.8409C8.40046 14.2724 8.35559 14.7186 8.35559 15.1752C8.35559 18.943 11.41 21.9974 15.1778 21.9974C18.9456 21.9974 22 18.943 22 15.1752C22 14.7184 21.9551 14.2721 21.8695 13.8404C21.821 13.5961 21.5401 13.4899 21.325 13.6154C19.6548 14.5898 17.5129 15.1752 15.1773 15.1752C12.8422 15.1752 10.7005 14.59 9.03043 13.6159Z" fill="white"/>
<path fill-rule="evenodd" clip-rule="evenodd" d="M12.9696 8.38414C13.1847 8.5096 13.4655 8.40336 13.514 8.1591C13.5995 7.72758 13.6444 7.28141 13.6444 6.82477C13.6444 3.05697 10.59 0.00256388 6.82221 0.00256437C3.05441 0.00256487 3.26156e-06 3.05697 3.75565e-06 6.82477C3.81555e-06 7.28159 0.0449048 7.72793 0.130533 8.1596C0.178985 8.40386 0.459877 8.51008 0.674964 8.3846C2.34518 7.41018 4.48712 6.82475 6.82266 6.82475C9.15783 6.82475 11.2995 7.41 12.9696 8.38414Z" fill="white"/>
</svg>
