<svg width="122" height="122" viewBox="0 0 122 122" fill="none" xmlns="http://www.w3.org/2000/svg">
<g id="Frame 473">
<path id="glass" d="M108 67C108 92.9574 86.9574 114 61 114C35.0426 114 14 92.9574 14 67C14 41.0426 35.0426 20 61 20C86.9574 20 108 41.0426 108 67Z" fill="url(#paint0_radial_1_282)"/>
<path id="glass_2" d="M98 67C98 87.4345 81.4345 104 61 104C40.5655 104 24 87.4345 24 67C24 46.5655 40.5655 30 61 30C81.4345 30 98 46.5655 98 67Z" fill="url(#paint1_linear_1_282)"/>
<g id="Vector" filter="url(#filter0_biiii_1_282)">
<path fill-rule="evenodd" clip-rule="evenodd" d="M62.1003 38.3192C71.7189 25.9587 86.7479 18 103.63 18C104.295 18 104.932 18.2639 105.402 18.7336C105.871 19.2034 106.135 19.8405 106.135 20.5048C106.135 37.3907 98.1766 52.4164 85.8161 62.0383C86.3301 65.2586 86.1394 68.5522 85.257 71.6916C84.3746 74.8311 82.8216 77.7418 80.7051 80.2227C78.5886 82.7037 75.959 84.696 72.9978 86.0621C70.0366 87.4281 66.8143 88.1355 63.5532 88.1353C62.8888 88.1353 62.2517 87.8714 61.782 87.4016C61.3122 86.9319 61.0483 86.2948 61.0483 85.6305L61.0483 71.8338C57.8018 69.2701 54.8672 66.3345 52.3048 63.087H38.5048C37.8405 63.087 37.2034 62.8231 36.7337 62.3533C36.2639 61.8836 36 61.2465 36 60.5821C35.9997 57.3207 36.7071 54.098 38.0734 51.1365C39.4397 48.1751 41.4323 45.5453 43.9136 43.4288C46.395 41.3122 49.3061 39.7593 52.446 38.8771C55.5858 37.995 58.8797 37.8046 62.1003 38.3192ZM81.087 35.5338C79.094 35.5338 77.1827 36.3255 75.7734 37.7348C74.3642 39.144 73.5725 41.0553 73.5725 43.0483C73.5725 45.0413 74.3642 46.9526 75.7734 48.3619C77.1827 49.7711 79.094 50.5628 81.087 50.5628C83.0799 50.5628 84.9913 49.7711 86.4005 48.3619C87.8098 46.9526 88.6015 45.0413 88.6015 43.0483C88.6015 41.0554 87.8098 39.144 86.4005 37.7348C84.9913 36.3255 83.0799 35.5338 81.087 35.5338Z" fill="url(#paint2_linear_1_282)"/>
<path fill-rule="evenodd" clip-rule="evenodd" d="M62.1003 38.3192C71.7189 25.9587 86.7479 18 103.63 18C104.295 18 104.932 18.2639 105.402 18.7336C105.871 19.2034 106.135 19.8405 106.135 20.5048C106.135 37.3907 98.1766 52.4164 85.8161 62.0383C86.3301 65.2586 86.1394 68.5522 85.257 71.6916C84.3746 74.8311 82.8216 77.7418 80.7051 80.2227C78.5886 82.7037 75.959 84.696 72.9978 86.0621C70.0366 87.4281 66.8143 88.1355 63.5532 88.1353C62.8888 88.1353 62.2517 87.8714 61.782 87.4016C61.3122 86.9319 61.0483 86.2948 61.0483 85.6305L61.0483 71.8338C57.8018 69.2701 54.8672 66.3345 52.3048 63.087H38.5048C37.8405 63.087 37.2034 62.8231 36.7337 62.3533C36.2639 61.8836 36 61.2465 36 60.5821C35.9997 57.3207 36.7071 54.098 38.0734 51.1365C39.4397 48.1751 41.4323 45.5453 43.9136 43.4288C46.395 41.3122 49.3061 39.7593 52.446 38.8771C55.5858 37.995 58.8797 37.8046 62.1003 38.3192ZM81.087 35.5338C79.094 35.5338 77.1827 36.3255 75.7734 37.7348C74.3642 39.144 73.5725 41.0553 73.5725 43.0483C73.5725 45.0413 74.3642 46.9526 75.7734 48.3619C77.1827 49.7711 79.094 50.5628 81.087 50.5628C83.0799 50.5628 84.9913 49.7711 86.4005 48.3619C87.8098 46.9526 88.6015 45.0413 88.6015 43.0483C88.6015 41.0554 87.8098 39.144 86.4005 37.7348C84.9913 36.3255 83.0799 35.5338 81.087 35.5338Z" fill="black" fill-opacity="0.08"/>
<path d="M103.63 17.5417C86.6974 17.5417 71.6128 25.4793 61.9047 37.8254C58.7041 37.3526 55.4387 37.5602 52.322 38.4359C49.1183 39.3359 46.148 40.9205 43.6162 43.08C41.0844 45.2396 39.0513 47.9229 37.6572 50.9445C36.2632 53.9662 35.5414 57.2544 35.5417 60.5821C35.5417 61.368 35.8539 62.1217 36.4096 62.6774C36.9653 63.2331 37.7189 63.5453 38.5048 63.5453H52.0832C54.5888 66.6937 57.4426 69.5485 60.59 72.0553L60.59 85.6305C60.59 86.4163 60.9022 87.17 61.4579 87.7257C62.0136 88.2814 62.7673 88.5936 63.5531 88.5936C66.8805 88.5938 70.1684 87.8721 73.1898 86.4782C76.2112 85.0844 78.8942 83.0517 81.0538 80.5202C83.2133 77.9888 84.7979 75.0189 85.6982 71.8156C86.5741 68.6993 86.7821 65.4343 86.3098 62.2339C98.6559 52.5226 106.594 37.4413 106.594 20.5048C106.594 19.719 106.281 18.9653 105.726 18.4096C105.17 17.8539 104.416 17.5417 103.63 17.5417ZM76.0975 38.0589C77.4208 36.7356 79.2156 35.9922 81.087 35.9922C82.9584 35.9922 84.7531 36.7356 86.0764 38.0589C87.3997 39.3821 88.1431 41.1769 88.1431 43.0483C88.1431 44.9197 87.3997 46.7145 86.0764 48.0378C84.7531 49.3611 82.9584 50.1045 81.087 50.1045C79.2156 50.1045 77.4208 49.3611 76.0975 48.0378C74.7742 46.7145 74.0308 44.9197 74.0308 43.0483C74.0308 41.1769 74.7742 39.3821 76.0975 38.0589Z" stroke="white" stroke-opacity="0.22" stroke-width="0.916667"/>
</g>
</g>
<defs>
<filter id="filter0_biiii_1_282" x="26.9433" y="8.94337" width="88.2487" height="88.2486" filterUnits="userSpaceOnUse" color-interpolation-filters="sRGB">
<feFlood flood-opacity="0" result="BackgroundImageFix"/>
<feGaussianBlur in="BackgroundImageFix" stdDeviation="4.07"/>
<feComposite in2="SourceAlpha" operator="in" result="effect1_backgroundBlur_1_282"/>
<feBlend mode="normal" in="SourceGraphic" in2="effect1_backgroundBlur_1_282" result="shape"/>
<feColorMatrix in="SourceAlpha" type="matrix" values="0 0 0 0 0 0 0 0 0 0 0 0 0 0 0 0 0 0 127 0" result="hardAlpha"/>
<feOffset dx="3.87696" dy="3.87696"/>
<feGaussianBlur stdDeviation="4.4585"/>
<feComposite in2="hardAlpha" operator="arithmetic" k2="-1" k3="1"/>
<feColorMatrix type="matrix" values="0 0 0 0 1 0 0 0 0 0.6 0 0 0 0 0 0 0 0 0.18 0"/>
<feBlend mode="normal" in2="shape" result="effect2_innerShadow_1_282"/>
<feColorMatrix in="SourceAlpha" type="matrix" values="0 0 0 0 0 0 0 0 0 0 0 0 0 0 0 0 0 0 127 0" result="hardAlpha"/>
<feOffset dy="0.775392"/>
<feGaussianBlur stdDeviation="1.16309"/>
<feComposite in2="hardAlpha" operator="arithmetic" k2="-1" k3="1"/>
<feColorMatrix type="matrix" values="0 0 0 0 1 0 0 0 0 1 0 0 0 0 1 0 0 0 0.05 0"/>
<feBlend mode="normal" in2="effect2_innerShadow_1_282" result="effect3_innerShadow_1_282"/>
<feColorMatrix in="SourceAlpha" type="matrix" values="0 0 0 0 0 0 0 0 0 0 0 0 0 0 0 0 0 0 127 0" result="hardAlpha"/>
<feOffset dy="0.387696"/>
<feComposite in2="hardAlpha" operator="arithmetic" k2="-1" k3="1"/>
<feColorMatrix type="matrix" values="0 0 0 0 1 0 0 0 0 1 0 0 0 0 1 0 0 0 0.05 0"/>
<feBlend mode="normal" in2="effect3_innerShadow_1_282" result="effect4_innerShadow_1_282"/>
<feColorMatrix in="SourceAlpha" type="matrix" values="0 0 0 0 0 0 0 0 0 0 0 0 0 0 0 0 0 0 127 0" result="hardAlpha"/>
<feOffset dy="-3.87696"/>
<feGaussianBlur stdDeviation="1.93848"/>
<feComposite in2="hardAlpha" operator="arithmetic" k2="-1" k3="1"/>
<feColorMatrix type="matrix" values="0 0 0 0 1 0 0 0 0 0.6 0 0 0 0 0 0 0 0 0.4 0"/>
<feBlend mode="overlay" in2="effect4_innerShadow_1_282" result="effect5_innerShadow_1_282"/>
</filter>
<radialGradient id="paint0_radial_1_282" cx="0" cy="0" r="1" gradientUnits="userSpaceOnUse" gradientTransform="translate(79.6601 43.3527) rotate(122.789) scale(89.898 89.8985)">
<stop stop-color="#FFBD59"/>
<stop offset="1" stop-color="#E98C00"/>
</radialGradient>
<linearGradient id="paint1_linear_1_282" x1="61" y1="-1.90791" x2="61" y2="107.689" gradientUnits="userSpaceOnUse">
<stop stop-color="white"/>
<stop offset="1" stop-color="white" stop-opacity="0"/>
</linearGradient>
<linearGradient id="paint2_linear_1_282" x1="71.0676" y1="136.028" x2="35.1309" y2="33.2906" gradientUnits="userSpaceOnUse">
<stop stop-color="#FF9900" stop-opacity="0.01"/>
<stop offset="1" stop-color="#FF9900" stop-opacity="0.12"/>
</linearGradient>
</defs>
</svg>
