<svg width="122" height="122" viewBox="0 0 122 122" fill="none" xmlns="http://www.w3.org/2000/svg">
<g id="Frame 472">
<path id="Vector" fill-rule="evenodd" clip-rule="evenodd" d="M63.4061 8.59183C62.7864 8.00678 61.965 7.68066 61.1111 7.68066C60.2571 7.68066 59.4357 8.00678 58.816 8.59183C49.3747 17.5206 36.8003 22.4169 23.7812 22.2338C23.072 22.2247 22.3782 22.4409 21.8007 22.8511C21.2233 23.2613 20.7921 23.8441 20.5699 24.5149C18.6929 30.2116 17.7395 36.1698 17.7456 42.1654C17.7456 68.4838 35.8212 90.5901 60.2793 96.8574C60.8249 96.9975 61.3972 96.9975 61.9428 96.8574C86.4009 90.5901 104.477 68.4838 104.477 42.1654C104.477 36.0087 103.485 30.0736 101.652 24.5149C101.431 23.8432 101 23.2595 100.422 22.8484C99.8449 22.4374 99.1507 22.2205 98.4409 22.2294L97.8049 22.2338C84.4795 22.2338 72.3772 17.0517 63.4061 8.59183Z" fill="url(#paint0_radial_1_306)"/>
<g id="Vector_2" filter="url(#filter0_biiii_1_306)">
<path fill-rule="evenodd" clip-rule="evenodd" d="M63.406 25.949C62.7863 25.364 61.9649 25.0378 61.111 25.0378C60.257 25.0378 59.4356 25.364 58.8159 25.949C49.3746 34.8778 36.8002 39.7741 23.7811 39.591C23.0718 39.5818 22.3781 39.798 21.8006 40.2082C21.2232 40.6184 20.792 41.2013 20.5698 41.8721C18.6928 47.5688 17.7394 53.527 17.7455 59.5225C17.7455 85.841 35.8211 107.947 60.2792 114.215C60.8248 114.355 61.3971 114.355 61.9427 114.215C86.4008 107.947 104.476 85.841 104.476 59.5225C104.476 53.3659 103.485 47.4307 101.652 41.8721C101.431 41.2004 101 40.6166 100.422 40.2056C99.8448 39.7946 99.1506 39.5777 98.4408 39.5866L97.8048 39.591C84.4794 39.591 72.3771 34.4088 63.406 25.949Z" fill="url(#paint1_linear_1_306)"/>
<path fill-rule="evenodd" clip-rule="evenodd" d="M63.406 25.949C62.7863 25.364 61.9649 25.0378 61.111 25.0378C60.257 25.0378 59.4356 25.364 58.8159 25.949C49.3746 34.8778 36.8002 39.7741 23.7811 39.591C23.0718 39.5818 22.3781 39.798 21.8006 40.2082C21.2232 40.6184 20.792 41.2013 20.5698 41.8721C18.6928 47.5688 17.7394 53.527 17.7455 59.5225C17.7455 85.841 35.8211 107.947 60.2792 114.215C60.8248 114.355 61.3971 114.355 61.9427 114.215C86.4008 107.947 104.476 85.841 104.476 59.5225C104.476 53.3659 103.485 47.4307 101.652 41.8721C101.431 41.2004 101 40.6166 100.422 40.2056C99.8448 39.7946 99.1506 39.5777 98.4408 39.5866L97.8048 39.591C84.4794 39.591 72.3771 34.4088 63.406 25.949Z" fill="black" fill-opacity="0.08"/>
<path d="M58.4146 25.5239L58.4142 25.5243L17.7455 59.5225H17.1609C17.1609 59.5226 17.1609 59.5227 17.1609 59.5228C17.161 86.1161 35.4253 108.449 60.1341 114.781C60.7749 114.945 61.447 114.945 62.0878 114.781C86.7967 108.449 105.061 86.1159 105.061 59.5225C105.061 53.3028 104.059 47.3059 102.207 41.689C101.947 40.8988 101.44 40.2124 100.761 39.7293C100.083 39.2466 99.2682 38.992 98.4352 39.002C98.4346 39.002 98.4341 39.002 98.4335 39.0021L97.8048 39.0064C97.8041 39.0064 97.8034 39.0064 97.8028 39.0064C84.6329 39.0059 72.6735 33.8847 63.8073 25.5239C63.0788 24.8362 62.1138 24.4533 61.111 24.4533C60.1081 24.4533 59.1431 24.8362 58.4146 25.5239Z" stroke="white" stroke-opacity="0.22" stroke-width="1.16917"/>
</g>
<path id="Vector_3" fill-rule="evenodd" clip-rule="evenodd" d="M62.878 17.5947C62.3859 17.1301 61.7336 16.8711 61.0555 16.8711C60.3773 16.8711 59.725 17.1301 59.2329 17.5947C51.7354 24.6852 41.7498 28.5734 31.4111 28.428C30.8479 28.4207 30.297 28.5924 29.8384 28.9182C29.3798 29.2439 29.0375 29.7067 28.861 30.2395C27.3704 34.7633 26.6133 39.4948 26.6182 44.256C26.6182 65.1559 40.9723 82.7109 60.395 87.6879C60.8282 87.7992 61.2827 87.7992 61.7159 87.6879C81.1386 82.7109 95.4927 65.1559 95.4927 44.256C95.4927 39.3669 94.7051 34.6537 93.2499 30.2395C93.074 29.7061 92.7319 29.2425 92.2733 28.9161C91.8147 28.5897 91.2634 28.4175 90.6997 28.4245L90.1947 28.428C79.6127 28.428 70.0021 24.3128 62.878 17.5947Z" fill="url(#paint2_linear_1_306)"/>
</g>
<defs>
<filter id="filter0_biiii_1_306" x="6.19409" y="13.4865" width="109.834" height="112.385" filterUnits="userSpaceOnUse" color-interpolation-filters="sRGB">
<feFlood flood-opacity="0" result="BackgroundImageFix"/>
<feGaussianBlur in="BackgroundImageFix" stdDeviation="5.1911"/>
<feComposite in2="SourceAlpha" operator="in" result="effect1_backgroundBlur_1_306"/>
<feBlend mode="normal" in="SourceGraphic" in2="effect1_backgroundBlur_1_306" result="shape"/>
<feColorMatrix in="SourceAlpha" type="matrix" values="0 0 0 0 0 0 0 0 0 0 0 0 0 0 0 0 0 0 127 0" result="hardAlpha"/>
<feOffset dx="4.94489" dy="4.94489"/>
<feGaussianBlur stdDeviation="5.68662"/>
<feComposite in2="hardAlpha" operator="arithmetic" k2="-1" k3="1"/>
<feColorMatrix type="matrix" values="0 0 0 0 1 0 0 0 0 0.6 0 0 0 0 0 0 0 0 0.18 0"/>
<feBlend mode="normal" in2="shape" result="effect2_innerShadow_1_306"/>
<feColorMatrix in="SourceAlpha" type="matrix" values="0 0 0 0 0 0 0 0 0 0 0 0 0 0 0 0 0 0 127 0" result="hardAlpha"/>
<feOffset dy="0.988977"/>
<feGaussianBlur stdDeviation="1.48347"/>
<feComposite in2="hardAlpha" operator="arithmetic" k2="-1" k3="1"/>
<feColorMatrix type="matrix" values="0 0 0 0 1 0 0 0 0 1 0 0 0 0 1 0 0 0 0.05 0"/>
<feBlend mode="normal" in2="effect2_innerShadow_1_306" result="effect3_innerShadow_1_306"/>
<feColorMatrix in="SourceAlpha" type="matrix" values="0 0 0 0 0 0 0 0 0 0 0 0 0 0 0 0 0 0 127 0" result="hardAlpha"/>
<feOffset dy="0.494489"/>
<feComposite in2="hardAlpha" operator="arithmetic" k2="-1" k3="1"/>
<feColorMatrix type="matrix" values="0 0 0 0 1 0 0 0 0 1 0 0 0 0 1 0 0 0 0.05 0"/>
<feBlend mode="normal" in2="effect3_innerShadow_1_306" result="effect4_innerShadow_1_306"/>
<feColorMatrix in="SourceAlpha" type="matrix" values="0 0 0 0 0 0 0 0 0 0 0 0 0 0 0 0 0 0 127 0" result="hardAlpha"/>
<feOffset dy="-4.94489"/>
<feGaussianBlur stdDeviation="2.47244"/>
<feComposite in2="hardAlpha" operator="arithmetic" k2="-1" k3="1"/>
<feColorMatrix type="matrix" values="0 0 0 0 1 0 0 0 0 0.6 0 0 0 0 0 0 0 0 0.4 0"/>
<feBlend mode="overlay" in2="effect4_innerShadow_1_306" result="effect5_innerShadow_1_306"/>
</filter>
<radialGradient id="paint0_radial_1_306" cx="0" cy="0" r="1" gradientUnits="userSpaceOnUse" gradientTransform="translate(78.3282 29.8612) rotate(122.038) scale(84.6775 83.6403)">
<stop stop-color="#FFBD59"/>
<stop offset="1" stop-color="#E98C00"/>
</radialGradient>
<linearGradient id="paint1_linear_1_306" x1="-13.2705" y1="146.247" x2="30.5863" y2="6.65951" gradientUnits="userSpaceOnUse">
<stop stop-color="#FF9900" stop-opacity="0.01"/>
<stop offset="1" stop-color="#FF9900" stop-opacity="0.12"/>
</linearGradient>
<linearGradient id="paint2_linear_1_306" x1="61.0554" y1="-13.7002" x2="61.0554" y2="91.3057" gradientUnits="userSpaceOnUse">
<stop stop-color="white"/>
<stop offset="1" stop-color="white" stop-opacity="0"/>
</linearGradient>
</defs>
</svg>
